#!OML:ASF I:\Actors\actors\Patient Classification 1\Patient 1\Session 1\Subject1.ASF
:FULLY-SPECIFIED
:DEGREES
611
root -0.107371 17.6127 7.82982 7.80416 -0.180021 -8.45335
lowerback 5.02868 3.56364 4.02895
upperback -8.70201 5.34537 0.486461
thorax -11.8869 2.24405 -2.51592
lowerneck -14.1374 -0.86115 3.47837
upperneck 32.1941 -2.98752 2.31959
head 13.1503 -0.545758 -0.147276
rclavicle 0 -1.98785e-014
rhumerus 16.3151 37.155 -82.6307
rradius 92.1834
rwrist -9.10686
rhand -10.8186 297.472
rfingers 7.12502
rthumb 15.1952 -268.05
lclavicle 0 -1.98785e-014
lhumerus -23.6531 -14.7381 90.4169
lradius 80.5233
lwrist 3.37431
lhand -29.6259 -11.8044
lfingers 7.12502
lthumb -2.95619 18.1549
rfemur -0.908738 23.5311 25.6796
rtibia 1.13402
rfoot -12.2507 -24.879
rtoes 3.20055
lfemur 5.85039 -39.796 -14.861
ltibia -3.66496
lfoot -12.5865 45.4027
ltoes 2.62149
612
root -0.110107 17.6164 7.83216 7.72026 0.182319 -8.65601
lowerback 5.0146 3.44644 4.26367
upperback -8.62312 5.21354 0.542606
thorax -11.7827 2.16695 -2.56161
lowerneck -14.0348 -0.800096 3.63235
upperneck 32.1133 -2.8913 2.19998
head 13.0896 -0.503906 -0.205408
rclavicle 3.37934e-015 -2.38542e-014
rhumerus 15.6141 36.6374 -83.4775
rradius 93.9367
rwrist -6.34883
rhand -13.857 300.218
rfingers 7.12502
rthumb 12.267 -89.4019
lclavicle 3.37934e-015 -2.38542e-014
lhumerus -23.3934 -14.6248 90.4643
lradius 80.4519
lwrist 3.43605
lhand -29.842 -11.9599
lfingers 7.12502
lthumb -3.1649 17.9963
rfemur -0.792317 23.41 25.991
rtibia 1.13258
rfoot -12.3462 -25.0912
rtoes 3.27556
lfemur 5.59591 -39.3642 -14.3657
ltibia -3.57053
lfoot -12.1588 44.6677
ltoes 2.03028
613
root -0.114721 17.6167 7.83677 7.57875 0.385602 -8.90697
lowerback 4.99284 3.3528 4.49198
upperback -8.50187 5.1143 0.643641
thorax -11.6287 2.111 -2.55804
lowerneck -13.9915 -0.707613 3.73809
upperneck 32.0432 -2.74766 2.10461
head 13.0482 -0.443 -0.239029
rclavicle 1.94809e-014 2.22639e-014
rhumerus 14.2956 36.9606 -84.6111
rradius 94.6938
rwrist -4.89343
rhand -15.2097 301.669
rfingers 7.12502
rthumb 10.9625 -88.0244
lclavicle 1.94809e-014 2.22639e-014
lhumerus -23.0833 -14.3473 90.5039
lradius 80.3815
lwrist 3.27149
lhand -29.9748 -11.9058
lfingers 7.12502
lthumb -3.29311 18.0486
rfemur -0.627194 23.3421 26.3995
rtibia 1.1981
rfoot -12.4489 -25.1911
rtoes 3.30601
lfemur 5.5847 -38.9373 -13.9638
ltibia -3.56534
lfoot -11.8748 44.0929
ltoes 1.57375
614
root -0.119373 17.6129 7.84203 7.42418 0.37328 -9.01471
lowerback 5.07828 3.30288 4.50927
upperback -8.44005 5.0592 0.727672
thorax -11.6207 2.08795 -2.47346
lowerneck -14.0152 -0.632012 3.63274
upperneck 32.0881 -2.63589 2.18342
head 13.0759 -0.394647 -0.173363
rclavicle 1.41137e-014 7.15625e-015
rhumerus 12.25 37.9333 -86.1787
rradius 94.2252
rwrist -4.7037
rhand -17.4553 304.444
rfingers 7.12502
rthumb 8.79597 -85.3527
lclavicle 1.41137e-014 7.15625e-015
lhumerus -23.05 -14.1787 90.5015
lradius 80.3778
lwrist 3.15075
lhand -30.1663 -11.7859
lfingers 7.12502
lthumb -3.47809 18.1655
rfemur -0.45039 23.3461 26.6346
rtibia 1.25762
rfoot -12.5175 -25.1947
rtoes 3.33321
lfemur 5.79871 -38.7158 -13.917
ltibia -3.61109
lfoot -11.8533 43.8972
ltoes 1.63238
615
root -0.122023 17.6056 7.84637 7.28872 0.19279 -8.9808
lowerback 5.13569 3.29604 4.39619
upperback -8.38232 5.04157 0.764078
thorax -11.6027 2.09221 -2.37152
lowerneck -13.9665 -0.550241 3.5217
upperneck 32.0755 -2.5247 2.31517
head 13.0648 -0.342565 -0.0858575
rclavicle 7.28546e-014 2.46493e-014
rhumerus 9.82418 39.4472 -87.8865
rradius 92.7863
rwrist -4.81807
rhand -19.8243 307.077
rfingers 7.12502
rthumb 6.50947 -82.803
lclavicle 7.28546e-014 2.46493e-014
lhumerus -23.1116 -14.0928 90.4422
lradius 80.4092
lwrist 3.12219
lhand -30.283 -11.7339
lfingers 7.12502
lthumb -3.59074 18.2156
rfemur -0.286723 23.3568 26.6708
rtibia 1.26744
rfoot -12.4911 -25.103
rtoes 3.24605
lfemur 6.11993 -38.6767 -14.1735
ltibia -3.63026
lfoot -11.9521 44.0077
ltoes 1.71662
